<?xml version="1.0" encoding="UTF-8"?>
<!DOCTYPE svg PUBLIC "-//W3C//DTD SVG 1.1//EN" "http://www.w3.org/Graphics/SVG/1.1/DTD/svg11.dtd">
<!-- Creator: CorelDRAW 2023 -->
<svg xmlns="http://www.w3.org/2000/svg" xml:space="preserve" width="103.716mm" height="123.715mm" version="1.1" style="shape-rendering:geometricPrecision; text-rendering:geometricPrecision; image-rendering:optimizeQuality; fill-rule:evenodd; clip-rule:evenodd"
viewBox="0 0 9346.28 11148.52"
 xmlns:xlink="http://www.w3.org/1999/xlink"
 xmlns:xodm="http://www.corel.com/coreldraw/odm/2003">
 <defs>
  <style type="text/css">
   <![CDATA[
    .fil4 {fill:#029491;fill-rule:nonzero}
    .fil1 {fill:#263238;fill-rule:nonzero}
    .fil6 {fill:#455A64;fill-rule:nonzero}
    .fil9 {fill:#EB996E;fill-rule:nonzero}
    .fil2 {fill:#EBEBEB;fill-rule:nonzero}
    .fil3 {fill:whitesmoke;fill-rule:nonzero}
    .fil10 {fill:#FFB64F;fill-rule:nonzero}
    .fil8 {fill:#FFBE9D;fill-rule:nonzero}
    .fil0 {fill:white;fill-rule:nonzero}
    .fil5 {fill:black;fill-rule:nonzero;fill-opacity:0.301961}
    .fil7 {fill:white;fill-rule:nonzero;fill-opacity:0.600000}
   ]]>
  </style>
 </defs>
 <g id="Слой_x0020_1">
  <metadata id="CorelCorpID_0Corel-Layer"/>
  <polygon class="fil0" points="9335.76,2768.02 2189.34,2768.02 2189.34,8137.92 9335.76,8137.92 "/>
  <path class="fil1" d="M9335.76 8137.92c0,0 0,-8.61 0,-25.12 0,-16.5 0,-41.16 0,-73.43 0,-64.62 0,-160.32 -1.19,-285.45 0,-249.78 -1.43,-616.81 -2.65,-1085.27 -1.19,-935.49 -3.1,-2276.79 -5.24,-3899.91l10.27 10.27 -7145.69 2.14 12.44 -12.42c0,1930.81 0,3758.97 0,5369.91l-11.25 -11.26 5157.94 5.51 1464.97 3.13 388.81 1.42 100.23 0 25.61 0 -25.13 0 -98.81 0 -386.63 1.43 -1462.35 3.13 -5165.37 5.48 -13.63 0 0 -11.23c0,-1610.94 0,-3439.09 -1.2,-5369.93l0 -12.44 13.16 0 7145.7 2.41 10.52 0 0 10.04c-2.14,1626.95 -3.81,2970.16 -5.24,3907.1 -1.19,467.51 -1.93,833.57 -2.65,1082.87 0,124.18 0,219.4 0,283.54 0,31.81 0,55.99 0,71.77 0,15.79 -2.62,26.32 -2.62,26.32z"/>
  <path class="fil1" d="M9299.88 3425.72c-5.96,0.78 -11.94,1.16 -17.95,1.22l-53.12 0 -203.83 2.14c-176.82,1.43 -433.06,2.14 -749.38,1.91 -633.07,0 -1507.31,-4.53 -2472.97,-12.45l-2472.96 -19.86 -749.62 -5.96 -203.6 -2.41 -53.11 -1.43c-5.97,0.69 -11.99,0.69 -17.94,0 5.91,-1.07 11.93,-1.48 17.94,-1.19l53.11 0 203.6 -2.14c177.05,-1.46 433.07,-2.17 749.62,-2.17 632.83,0 1507.3,4.79 2473.2,12.68l2472.73 19.86 749.62 5.75 203.6 2.62 53.12 0c6.01,-0.14 12.04,0.33 17.95,1.43z"/>
  <path class="fil1" d="M2656.13 3039.8c0.05,16.67 -4.84,33 -14.08,46.88 -9.23,13.88 -22.39,24.73 -37.77,31.12 -15.41,6.42 -32.36,8.1 -48.72,4.87 -16.37,-3.24 -31.4,-11.28 -43.2,-23.06 -11.78,-11.8 -19.82,-26.82 -23.06,-43.17 -3.24,-16.38 -1.55,-33.33 4.87,-48.72 6.39,-15.4 17.24,-28.57 31.12,-37.79 13.88,-9.25 30.21,-14.14 46.88,-14.08 22.27,0.05 43.58,8.91 59.32,24.66 15.73,15.73 24.6,37.07 24.65,59.31z"/>
  <path class="fil1" d="M2992.79 3039.8c0.05,16.67 -4.87,32.98 -14.09,46.85 -9.23,13.88 -22.37,24.71 -37.75,31.12 -15.37,6.42 -32.32,8.13 -48.68,4.89 -16.36,-3.23 -31.38,-11.21 -43.18,-22.99 -11.8,-11.75 -19.83,-26.77 -23.11,-43.11 -3.26,-16.36 -1.62,-33.31 4.75,-48.71 6.36,-15.4 17.17,-28.57 31.02,-37.81 13.85,-9.28 30.13,-14.21 46.81,-14.21 22.29,0 43.68,8.82 59.47,24.58 15.81,15.73 24.7,37.1 24.77,59.39z"/>
  <path class="fil1" d="M3245.18 3124.96c46.52,0 84.24,-37.69 84.24,-84.21 0,-46.52 -37.72,-84.21 -84.24,-84.21 -46.49,0 -84.21,37.69 -84.21,84.21 0,46.52 37.72,84.21 84.21,84.21z"/>
  <polygon class="fil2" points="4903.48,6542.77 3434.9,6542.77 3434.9,7642.18 4903.48,7642.18 "/>
  <polygon class="fil2" points="6516.36,6542.77 5047.79,6542.77 5047.79,7642.18 6516.36,7642.18 "/>
  <polygon class="fil2" points="8395.93,6542.77 6927.36,6542.77 6927.36,7642.18 8395.93,7642.18 "/>
  <path class="fil3" d="M6011.12 6045.05c-691.25,-459.39 -610.69,-1417.3 -432.06,-1826.37l538.92 -93.92c-181.85,224.14 -201.02,1036.87 28.3,1212.31 229.3,175.46 655.79,173.29 824.5,-61.11 132.64,-184 151.14,-610.24 375.22,-644.52 -93.89,-475.83 243.17,-995.37 715.9,-1103.3 25.66,-134.23 81.37,-260.91 162.96,-370.54 81.59,-109.62 186.95,-199.37 308.16,-262.48 121.22,-63.11 255.14,-97.96 391.74,-101.95 136.6,-3.98 272.33,23.03 397.01,78.97l-10.35 1542.24c0,0 146.9,731.78 -309.81,902.49 -156.01,58.29 -310.67,24.32 -442.24,-38.48 -10.07,23.38 -24.48,44.68 -42.52,62.68 -70.86,69.33 -181.51,87.43 -278.96,66.64 -12.56,-2.69 -24.25,-5.97 -37.05,-10.18 -102.67,315.54 -397.03,654.72 -669.5,796.56 -394.17,206.45 -1148.39,97.92 -1520.24,-149.05z"/>
  <path class="fil1" d="M7437.03 4794.56c0,0 -0.67,-2.62 -3.01,-7.61l-10.23 -21.29c-4.69,-9.44 -10.35,-21.1 -15.91,-35.22 -5.58,-14.11 -13.04,-30.19 -18.92,-48.92 -37.34,-105.53 -53.7,-217.36 -48.14,-329.18 3.43,-76.65 17.55,-152.45 41.94,-225.21 27.58,-84.05 69.28,-162.77 123.34,-232.8 124.62,-161.63 303.04,-273.22 502.88,-314.58 28.64,-6.17 57.7,-9.33 84.64,-12.62l5.27 -0.48 0.26 -5.13c9.18,-117.61 43.04,-231.98 99.35,-335.63 56.32,-103.67 133.83,-194.3 227.51,-266.01 32.64,-23.9 66.64,-45.85 101.83,-65.78 62.94,-36.34 130.16,-64.71 200.09,-84.53 100.9,-29.42 207.1,-35.9 310.84,-18.95 18.47,2.55 34.31,6.32 48.26,9.53 11.75,2.48 23.38,5.53 34.86,9.18l21.46 5.98c2.39,0.9 4.87,1.45 7.42,1.57 0,0 -2.26,-1.33 -7.01,-2.71l-21.05 -7.16c-11.37,-4.15 -22.99,-7.58 -34.81,-10.23 -13.88,-3.74 -29.8,-7.84 -48.85,-11.33 -104.62,-18.86 -212.16,-13.66 -314.46,15.17 -70.81,19.41 -138.88,47.69 -202.61,84.14 -35.79,19.86 -70.29,41.92 -103.36,66.02 -34.84,26.19 -67.57,55.1 -97.87,86.44 -136.91,141.43 -220.24,326.11 -235.71,522.35l5.65 -5.82c-116.81,11.54 -229.96,47.04 -332.44,104.29 -102.45,57.24 -192.01,135.02 -263.08,228.44 -54.57,71.05 -96.58,150.94 -124.2,236.18 -24.39,74.04 -38.22,151.14 -41.16,229.03 -4.93,112.75 12.85,225.34 52.31,331.05 5.84,16.63 12.57,32.91 20.12,48.81 4.97,11.98 10.59,23.64 16.89,34.96 4.86,8.71 8.58,15.6 11.32,20.84 1.98,2.57 4.2,4.98 6.59,7.2z"/>
  <path class="fil1" d="M7156.97 4928.57c2.36,-0.29 0.19,-21.56 6.13,-54.72 3.6,-19.27 9.27,-38.08 16.95,-56.11 9.65,-21.98 21.91,-42.75 36.45,-61.82 15.21,-18.67 32.57,-35.48 51.74,-50.08 15.76,-11.68 32.78,-21.57 50.71,-29.51 30.97,-13.43 52.08,-16.24 51.7,-18.41 -0.39,-2.19 -5.42,-0.71 -15.15,0.24 -13.63,1.74 -27.01,5.15 -39.84,10.1 -19.27,6.97 -37.48,16.5 -54.19,28.33 -41.36,29.18 -73.43,69.69 -92.37,116.63 -7.65,19.05 -12.71,39.06 -15.04,59.44 -1.91,13.66 -2.03,27.49 -0.38,41.18 1.48,9.75 2.62,14.88 3.29,14.71z"/>
  <path class="fil1" d="M7400.38 5508.36c0,0 1.14,-15.14 6.32,-41.82 7.37,-37.94 22.22,-74.03 43.68,-106.15 31.95,-48.53 78.66,-85.46 133.22,-105.36 67.99,-24.63 142.86,-22.34 209.24,6.41l9.25 4.08 -0.59 -9.8c-1.19,-32.68 1.31,-65.4 7.49,-97.51 15.88,-82.69 54.72,-159.2 112.1,-220.81 47.64,-49.64 106.17,-87.48 170.98,-110.56 43.72,-15.59 89.55,-24.53 135.9,-26.54 32.9,-1.16 51.24,0.74 51.09,-0.45 -4.27,-1.31 -8.68,-2.05 -13.14,-2.19 -12.66,-1.55 -25.39,-2.29 -38.15,-2.2 -58.75,0.29 -116.86,12.31 -170.93,35.33 -54.05,23.02 -102.98,56.58 -143.92,98.74 -41.41,43.42 -73.71,94.7 -94.96,150.82 -21.24,56.13 -31.02,115.95 -28.76,175.91l8.78 -5.93c-69.39,-30.23 -147.78,-32.33 -218.71,-5.89 -56.37,21.24 -104.24,60.3 -136.39,111.23 -21.34,33.28 -35.42,70.69 -41.36,109.77 -1.58,10.49 -2.36,21.08 -2.32,31.69 -0.14,3.78 0.24,7.55 1.17,11.23z"/>
  <path class="fil1" d="M5661.84 5683.96c2.69,5.89 5.84,11.57 9.43,16.95 6.78,10.66 16.38,26.87 29.93,46.79 39.08,55.79 83.24,107.84 131.9,155.52 72.41,70.17 152.73,131.71 239.38,183.33 51.14,30.64 104.03,58.29 158.37,82.81 58.24,26.61 117.94,49.93 178.8,69.84 213.65,71 437.89,104.93 662.99,100.31 68.1,-1.33 135.96,-8.73 202.74,-22.15 23.44,-5.34 41.65,-9.88 53.72,-13.88 6.27,-1.6 12.4,-3.74 18.27,-6.46 -6.44,0.88 -12.81,2.24 -19.05,4.06 -12.26,3.33 -30.4,6.79 -54.01,11.49 -66.67,11.54 -134.16,17.62 -201.81,18.24 -223.69,2.03 -446.16,-32.86 -658.51,-103.22 -60.41,-19.69 -119.72,-42.77 -177.55,-69.12 -54.1,-24.08 -106.77,-51.33 -157.7,-81.56 -86.47,-50.83 -166.95,-111.23 -239.93,-180.04 -48.43,-46.71 -92.89,-97.35 -132.95,-151.4 -14.21,-19.22 -24.08,-35.03 -31.14,-46.14 -3.86,-5.46 -8.17,-10.61 -12.87,-15.36z"/>
  <path class="fil1" d="M6025.32 5129.97c1.68,10.83 4.79,21.37 9.33,31.33 9.75,27.44 22.03,53.93 36.67,79.11 48.05,84.24 118.53,153.47 203.6,199.99 85.07,46.52 181.4,68.5 278.25,63.47 28.99,-1.26 57.79,-5.19 86.07,-11.75 10.59,-1.96 20.89,-5.2 30.71,-9.66 -38.74,6.33 -77.82,10.47 -117.02,12.4 -94.85,2.55 -188.66,-20.08 -271.9,-65.59 -83.23,-45.49 -152.92,-112.25 -201.96,-193.46 -20.15,-34.09 -38.11,-69.42 -53.73,-105.84z"/>
  <path class="fil4" d="M5917.72 4048.39c49.56,100.41 78.72,209.63 85.81,321.38 0.88,15.9 -3.24,31.66 -11.82,45.08 -8.56,13.4 -21.15,23.79 -35.93,29.66 -14.81,5.87 -31.07,6.94 -46.52,3.05 -15.43,-3.88 -29.26,-12.54 -39.52,-24.73l-1.64 -0.97c16.59,135.9 24.15,272.76 22.65,409.66 -0.05,19.27 -6.06,38.04 -17.17,53.74 -11.13,15.72 -26.85,27.58 -44.99,34.03 -18.15,6.43 -37.84,7.08 -56.39,1.88 -18.53,-5.2 -35,-16.02 -47.16,-30.95 -219.98,-267.7 -335.4,-606.13 -324.81,-952.44l517.48 110.61z"/>
  <g id="_2425119298640">
   <path class="fil5" d="M5857.63 4172.95c9.42,16.64 15.41,35 17.63,53.98 1,9.49 -0.77,19.05 -5.08,27.54 -4.32,8.52 -11.01,15.57 -19.27,20.34 -25.93,12.47 -58.93,-8.36 -84.47,5.75 -25.54,14.11 -23.73,52.95 -16.95,82.49l21.83 93.42c5.39,22.91 8.78,51.55 -10.72,65.32 -19.51,13.79 -50.5,-0.05 -69.69,-17.47 -44.46,-41.06 -78.33,-92.27 -98.66,-149.3 -20.32,-57.01 -26.52,-118.12 -18.03,-178.06l283.42 -4.01z"/>
  </g>
  <g>
   <path class="fil4" d="M5880.84 5255.89c18.46,11.8 31.54,30.35 36.43,51.67 4.91,21.34 1.23,43.75 -10.21,62.4 -11.44,18.64 -29.78,32.06 -51.02,37.33 -21.22,5.29 -43.71,2.03 -62.54,-9.08 -18.86,-11.11 -32.59,-29.19 -38.27,-50.33 -5.65,-21.15 -2.78,-43.66 7.99,-62.71 10.78,-19.05 28.58,-33.12 49.63,-39.15 21.03,-6.06 43.59,-3.58 62.83,6.84l5.15 3.03zm0 0l0 0 0 0z"/>
  </g>
  <path class="fil3" d="M5627.74 0.28c124.75,-4.79 365.96,308.77 598.98,838.84 137.78,312.51 224.74,645.05 257.55,985.02l87.5 2316.2 -610.15 23.05 -354.02 13.52 -610.15 23.03 -79.35 -2101.99c-7.92,-205.63 3.9,-411.54 35.31,-614.92 30.52,-203.81 77.42,-404.84 140.22,-601.13 179.56,-548.21 409.5,-877.04 534.13,-881.62z"/>
  <path class="fil4" d="M4943.1 2747.63l-5.7 4.97c-165.21,143.25 -296.13,321.8 -383.06,522.46 -86.96,200.66 -127.68,418.27 -119.21,636.79l10.53 277.55 536.63 -403.85 -39.2 -1037.93z"/>
  <path class="fil1" d="M4943.1 2747.61l0.17 5.39 0.35 14.92 2.29 56.89 6.27 215.06 26.03 745.5 1.69 -2.89 -488.25 368.47 -48.45 35.07 6.17 3.62 -6.39 -163.47c-1.65,-53.74 -4.84,-106.71 -4.6,-158.5 -0.77,-99.67 8.53,-199.13 27.83,-296.89 17.24,-88.38 42.94,-174.88 76.72,-258.34 14.76,-39.62 33.33,-75.89 49.64,-111.55 16.3,-35.65 35.16,-68.14 54.62,-98.33 57.99,-96.87 127.11,-186.62 205.98,-267.41 27.13,-29.55 51.02,-49.34 65.68,-64.31l23.29 -22.11 -6.37 5.15 -17.57 13.78c-15.35,14.28 -39.67,33.83 -67.21,63.16 -80.16,80.37 -150.3,170.12 -208.96,267.3 -19.67,30.06 -37.43,63.49 -55.29,98.52 -17.86,35 -35.22,72 -50.31,111.7 -34.23,83.83 -60.34,170.74 -77.98,259.53 -19.53,98.28 -29.06,198.28 -28.45,298.47 -0.31,52.31 2.82,104.97 4.68,158.84l6.58 164.13 0.32 7.97 6.43 -4.81 48.43 -35.05 489.01 -368.32 0.97 -1.64 0.84 -1.43 -30.74 -748.83 -9.03 -213.62 -2.29 -56.92c-0.34,-6.03 -0.34,-10.75 -0.74,-14.3l-1.39 -4.72z"/>
  <path class="fil4" d="M6517.53 2688.33c0,0 3.1,1.84 6.39,3.77 173.1,128.63 315.08,294.51 415.48,485.35 100.41,190.86 156.67,401.82 164.64,617.34l10.44 273.88 -558.16 -356.78 -38.79 -1023.54z"/>
  <path class="fil1" d="M6517.53 2688.33l-0.1 4.39 0.53 14.21 1.26 56.29 7.08 210.81 25.66 738.6 0.19 2.05 1.43 0.87c156.62,100.38 328.36,210.48 508.4,325.78 17.31,10.21 33.9,21.65 49.4,31.62l6.79 4 -0.29 -7.94 -6.03 -161.3c-2.34,-53.05 -3.24,-105.24 -7.42,-156.57 -6.78,-98.67 -23.63,-196.35 -50.31,-291.57 -23.84,-85.91 -55.98,-169.31 -95.94,-249.01 -17.52,-38.13 -38.86,-72.62 -57.75,-106.53 -18.88,-33.9 -40.06,-64.44 -62.06,-92.12 -64.52,-91.18 -139.72,-174.29 -224.01,-247.59 -29.37,-26.48 -54.55,-44.1 -70.81,-57.01 -8.06,-6.15 -14.16,-10.85 -19.14,-14.63 -5.01,-3.77 -6.82,-4.01 -6.82,-4.01 3.94,2.32 10.37,8.33 24.37,19.91 13.99,11.59 40.97,31.38 69.88,58.16 83.66,73.79 158.44,157.1 222.79,248.22 21.28,28.4 40,60.28 61.63,91.89 21.63,31.64 39.49,68.26 56.93,106.06 39.44,79.54 71.15,162.68 94.71,248.3 26.25,94.75 42.84,191.91 49.56,290 3.89,50.91 4.65,103.29 6.99,156.34l6.03 161.3 6.36 -3.75c-15.88,-9.36 -32.57,-20.6 -49.18,-31.49 -180.18,-115.11 -352.23,-225.12 -508.97,-325.3l1.81 3.03 -29.85 -735.27 -9.07 -211.7 -2.29 -56.89 -0.8 -14.63 -0.98 -4.49z"/>
  <path class="fil4" d="M5627.72 0.32c96.3,-7.4 262.82,182.69 440.75,513.1l-875.91 92.74c151.81,-348.49 311.72,-596.67 435.16,-605.84z"/>
  <path class="fil1" d="M4999.63 3822.12c0.26,2.39 349.26,-6.87 779.57,-20.66 430.29,-13.81 779.42,-26.59 779.15,-28.97 -0.26,-2.36 -347.87,6.87 -779.35,20.79 -431.48,13.95 -779.44,26.58 -779.37,28.85z"/>
  <path class="fil1" d="M5009.48 3892.11c-0.97,1.65 349.06,-6.98 779.34,-20.79 430.3,-13.81 779.44,-26.58 779.18,-28.97 -0.26,-2.36 -348.87,7.11 -779.37,20.82 -430.48,13.69 -779.42,26.56 -779.15,28.94z"/>
  <path class="fil1" d="M5010.77 3966.19c0.29,2.38 349.27,-6.87 779.59,-20.67 430.29,-13.81 779.42,-26.58 779.15,-28.97 -0.26,-2.36 -348.84,7.1 -779.34,20.82 -430.51,13.68 -779.44,26.56 -779.4,28.83z"/>
  <path class="fil1" d="M5012.32 4040.43c0.26,2.36 349.39,-7.08 779.56,-20.67 430.17,-13.62 779.73,-27.54 778.68,-28.13 -1.02,-0.62 -348.84,7.1 -779.34,20.79 -430.5,13.69 -778.82,25.54 -778.89,28.02z"/>
  <path class="fil1" d="M5013.34 4114.08c-0.98,1.67 349.06,-6.97 779.56,-20.67 430.5,-13.69 779.23,-26.71 779.15,-28.94 -0.05,-2.27 -348.84,7.1 -779.34,20.79 -430.5,13.69 -778.4,27.18 -779.37,28.83z"/>
  <path class="fil1" d="M5727.48 2719.78c0,0 -1.84,3.1 -1.41,10.85 0.42,7.75 -0.48,17.76 -0.77,31.47 -0.22,27.67 0.84,66.88 2.41,115.57 2.81,97.49 8.42,232.15 15.53,380.77 7.1,148.61 14.21,283.06 19.81,380.51l7.27 115.37 2.46 31.16c-0.07,3.67 0.41,7.29 1.38,10.82 0.33,-3.67 0.39,-7.37 0.12,-11.04l-0.71 -31.26 -4.67 -115.52 -17.96 -379.96 -17.88 -380.48 -5.42 -114.27c-0.35,-13.54 -1.22,-24.32 -0.93,-31.38l0.77 -12.62z"/>
  <path class="fil1" d="M4943.13 2747.61c0.26,2.38 349.81,-8.75 780.61,-24.77 430.77,-16.02 780.47,-30.69 780.4,-32.95 -0.05,-2.26 -349.61,8.87 -780.59,24.77 -430.98,15.93 -780.47,30.71 -780.42,32.95z"/>
  <path class="fil1" d="M5629.96 3488.26c-2.69,-2.94 -6.22,-5.01 -10.11,-5.97 -10.27,-4.15 -21.69,-4.6 -32.28,-1.26 -8.11,2.22 -15.5,6.53 -21.41,12.52 -5.91,5.97 -10.13,13.4 -12.28,21.53 -3.12,10.14 -2.97,21.01 0.39,31.07 3.38,10.06 9.82,18.81 18.43,25.01 8.61,6.2 18.93,9.56 29.54,9.59 10.62,0.03 20.98,-3.26 29.61,-9.44 7.06,-4.58 12.81,-10.92 16.64,-18.4 3.81,-7.52 5.61,-15.88 5.17,-24.28 -0.05,-10.8 -3.62,-21.28 -10.16,-29.87 -4.96,-5.72 -9.13,-7.61 -9.37,-7.2 -0.23,0.43 2.88,3.1 6.75,9.27 5.49,8.42 8.3,18.29 8.04,28.32 -0.1,7.27 -2.08,14.38 -5.78,20.63 -3.69,6.24 -8.94,11.44 -15.26,15.05 -7.39,4.86 -16.07,7.36 -24.92,7.17 -8.84,-0.22 -17.43,-3.07 -24.58,-8.27 -7.17,-5.2 -12.59,-12.44 -15.52,-20.77 -2.96,-8.34 -3.29,-17.4 -0.96,-25.93 1.62,-7.01 5.03,-13.5 9.92,-18.79 4.86,-5.32 11.04,-9.25 17.91,-11.44 9.23,-3.48 19.27,-4.13 28.87,-1.88 7.49,1.9 10.99,3.98 11.35,3.36z"/>
  <path class="fil1" d="M5604.76 3041c0,0 -2.65,-3.51 -10.09,-5.97 -10.3,-4.15 -21.72,-4.6 -32.31,-1.26 -8.1,2.22 -15.49,6.53 -21.41,12.52 -5.91,5.97 -10.13,13.4 -12.26,21.53 -3.14,10.14 -3,21.01 0.36,31.07 3.39,10.06 9.82,18.81 18.43,25.01 8.61,6.2 18.93,9.56 29.54,9.59 10.64,0.02 20.99,-3.27 29.62,-9.44 7.06,-4.58 12.8,-10.92 16.64,-18.4 3.84,-7.52 5.63,-15.89 5.18,-24.28 -0.2,-10.73 -3.79,-21.12 -10.28,-29.68 -2.41,-3.2 -5.61,-5.75 -9.25,-7.39 0,0 2.77,3.32 6.65,9.46 5.46,8.42 8.27,18.31 8.01,28.35 -0.07,7.23 -2.03,14.28 -5.7,20.5 -3.67,6.23 -8.91,11.38 -15.21,14.95 -7.36,4.87 -16.04,7.4 -24.89,7.23 -8.82,-0.16 -17.4,-3.03 -24.58,-8.2 -7.17,-5.15 -12.61,-12.37 -15.56,-20.72 -2.98,-8.33 -3.34,-17.36 -1.05,-25.9 1.65,-7.06 5.08,-13.56 9.97,-18.91 4.91,-5.32 11.08,-9.3 17.98,-11.53 9.23,-3.34 19.22,-3.91 28.76,-1.68 7.61,1.69 11.11,3.77 11.47,3.15z"/>
  <path class="fil1" d="M5819.92 2334.89c-2.82,-2.78 -6.3,-4.84 -10.11,-5.93 -10.33,-3.98 -21.67,-4.44 -32.29,-1.29 -8.39,2.22 -16.04,6.65 -22.1,12.87 -6.06,6.23 -10.3,13.95 -12.31,22.41 -3.1,10.14 -2.93,21.01 0.46,31.04 3.41,10.04 9.87,18.77 18.47,24.97 8.63,6.17 18.96,9.51 29.57,9.51 10.61,0 20.96,-3.33 29.57,-9.51 7.08,-4.56 12.82,-10.92 16.64,-18.41 3.84,-7.49 5.62,-15.86 5.19,-24.28 -0.09,-10.75 -3.69,-21.17 -10.3,-29.66 -5.06,-6.03 -8.98,-7.82 -9.25,-7.42 2.07,3.22 4.33,6.32 6.77,9.27 5.32,8.49 8.11,18.31 8.01,28.33 -0.12,7.25 -2.14,14.35 -5.81,20.6 -3.69,6.24 -8.92,11.44 -15.19,15.07 -7.61,4.29 -16.21,6.43 -24.93,6.2 -8.71,-0.24 -17.19,-2.87 -24.54,-7.59 -6.87,-5.46 -12.07,-12.75 -14.95,-21.02 -2.88,-8.3 -3.33,-17.24 -1.33,-25.8 1.62,-7.01 5.06,-13.5 9.92,-18.79 4.88,-5.32 11.06,-9.25 17.92,-11.44 9.23,-3.48 19.27,-4.13 28.87,-1.88 7.85,1.29 11.35,3.36 11.71,2.74z"/>
  <path class="fil1" d="M5914.5 2019.87c-2.17,0.39 -6.73,156.56 -10.99,348.46 -4.24,191.92 -3.88,348.2 -1.52,347.94 2.38,-0.26 6.74,-156.55 11.01,-348.46 4.24,-191.91 4.39,-347.63 1.5,-347.94z"/>
  <g id="_2425119320096">
   <path class="fil5" d="M6555.06 3685.29c0,0 -40.94,-671.24 -37.53,-996.96 70.72,154.72 150.18,331.82 170.6,500.77 19.1,176.19 -28.38,353.18 -133.06,496.19z"/>
  </g>
  <path class="fil0" d="M5584.54 2060.94c-252.69,-63.69 -405.87,-320.16 -342.19,-572.83 63.68,-252.67 320.16,-405.87 572.82,-342.18 252.69,63.69 405.87,320.16 342.19,572.83 -63.68,252.67 -320.16,405.87 -572.82,342.18z"/>
  <path class="fil1" d="M5483.86 2023.48c-2.05,-1.56 -4.27,-2.86 -6.61,-3.88 -4.97,-2.92 -11.35,-6.69 -19.38,-11.43 -10.59,-5.97 -20.7,-12.77 -30.23,-20.32 -13.57,-9.46 -26.47,-19.85 -38.6,-31.09 -33.81,-30.15 -62.99,-65.13 -86.57,-103.8 -31.4,-51.1 -52.79,-107.73 -63.02,-166.85 -13.4,-76.86 -7.29,-155.85 17.76,-229.74 25.06,-73.88 68.29,-140.29 125.7,-193.12 32.69,-30.76 69.96,-56.29 110.44,-75.7 20.79,-10.14 42.22,-18.94 64.13,-26.35 22.48,-6.45 45.33,-11.53 68.41,-15.22 97.92,-15.8 198.34,0.19 286.52,45.62 88.17,45.44 159.48,117.91 203.45,206.83 10.46,20.69 19.6,42.03 27.34,63.88 6.8,22.13 12.05,44.71 15.72,67.59 7.75,44.27 8.63,89.48 2.65,134.04 -10.56,82.36 -42.8,160.45 -93.42,226.29 -40.67,52.36 -91.98,95.5 -150.52,126.62 -58.56,31.12 -123.02,49.48 -189.19,53.91 -45.17,3.31 -90.58,-0.16 -134.74,-10.27 -16.19,-3.39 -32.16,-7.79 -47.78,-13.17 -11.69,-3.39 -23.08,-7.69 -34.1,-12.87 -8.43,-3.59 -15.3,-6.52 -20.74,-8.61 -2.23,-1.14 -4.65,-1.99 -7.1,-2.53 2.07,1.48 4.29,2.78 6.58,3.89 4.96,2.91 11.95,5.65 20.15,9.64 10.87,5.66 22.2,10.39 33.88,14.14 15.42,5.76 31.23,10.44 47.3,13.99 44.44,11.67 90.46,16.3 136.33,13.72 67.45,-3.71 133.32,-21.78 193.27,-52.99 59.92,-31.2 112.46,-74.83 154.19,-127.97 52.51,-67.32 86.05,-147.48 97.14,-232.14 6.29,-45.66 5.51,-92.02 -2.32,-137.44 -7.01,-47.64 -21.7,-93.83 -43.53,-136.76 -21.94,-44.71 -50.91,-85.6 -85.79,-121.12 -36.13,-36.43 -77.59,-67.14 -122.96,-91.08 -90.46,-46.28 -193.31,-62.55 -293.66,-46.46 -23.94,3.71 -47.59,9.17 -70.75,16.35 -22.43,7.65 -44.36,16.71 -65.68,27.1 -41.36,20.06 -79.42,46.33 -112.85,77.9 -62.49,58.13 -108.26,131.92 -132.63,213.71 -19.08,64.85 -24.13,133.02 -14.79,199.96 9.33,66.95 32.84,131.13 68.93,188.28 24.23,39.07 54.27,74.21 89.1,104.19 12.37,11.31 25.66,21.56 39.72,30.64 9.75,7.38 20.1,13.94 30.92,19.62 8.04,4.74 14.43,8.51 19.39,11.42 2.55,0.87 5.22,1.41 7.94,1.62z"/>
  <path class="fil1" d="M5627.74 0.29c-1.84,0.02 -3.67,0.14 -5.51,0.37 -5.51,0.26 -10.94,1.25 -16.19,2.96 -20.66,6.54 -39.98,16.81 -57.01,30.28 -64.02,53.83 -118.59,117.95 -161.53,189.73 -70.88,112.23 -132.19,230.22 -183.23,352.75 -69.22,162.68 -126.7,330.12 -172.01,501.01 -24.77,95.39 -47.13,196.17 -67.12,302.32 -20.6,110.72 -35.54,222.42 -44.8,334.65 -9.59,120.6 -12.52,241.64 -8.75,362.57l14.11 385.48 65.22 1736.78 0.21 6.24 6.25 -0.22c252.61,-9.68 517.36,-19.72 787.05,-29.61 269.66,-9.87 534.46,-20.44 787.28,-30l6.1 0 -0.21 -6.24 -65.38 -1737.42 -14.98 -385.45 -7.51 -183.27c-3.63,-60.75 -12.52,-120.13 -20.06,-178.47 -34.16,-213.18 -88.38,-422.66 -161.96,-625.65 -62.49,-165.54 -135.57,-326.9 -218.75,-483.07 -60.94,-117.83 -130.68,-230.89 -208.62,-338.22 -47.24,-68.72 -105.32,-129.31 -171.98,-179.42 -17.76,-12.43 -37.69,-21.45 -58.77,-26.58 -5.39,-1.26 -10.94,-1.83 -16.5,-1.68 -1.86,-0.18 -3.71,-0.16 -5.58,0.05 7.33,0.14 14.6,1.07 21.7,2.78 20.72,5.57 40.3,14.84 57.73,27.37 66.35,50.75 124.12,111.81 171.14,180.86 77.11,107.6 146.11,220.78 206.43,338.6 81.95,156.12 153.93,317.29 215.49,482.53 72.77,202.61 126.22,411.64 159.67,624.31 8.71,57.34 16.83,116.57 20.22,176.33l6.79 183.99 14.45 385.4 64.67 1737.28 6.01 -6.46 -787.17 29.81 -787.05 29.61 6.46 6.01 -66.28 -1736.85 -14.45 -385.4c-4.01,-120.54 -1.39,-241.2 7.81,-361.45 8.99,-116.07 24.83,-227.27 43.73,-333.32 18.91,-106.06 40.7,-207.09 65.4,-302.23 44.66,-170.6 101.45,-337.78 169.93,-500.29 50.17,-122.51 110.49,-240.61 180.35,-353.07 42.4,-71.65 96.21,-135.9 159.32,-190.2 16.69,-13.57 35.6,-24.13 55.91,-31.22 7.2,-1.96 14.54,-3.39 21.96,-4.27z"/>
  <path class="fil0" d="M7840.18 6183.68l-4155.19 0c-130.27,0 -255.21,-51.76 -347.34,-143.89 -92.11,-92.11 -143.87,-217.04 -143.87,-347.32 0,-130.28 51.76,-255.21 143.87,-347.35 92.12,-92.11 217.07,-143.87 347.34,-143.87l4155.19 0c130.28,0 255.21,51.76 347.34,143.87 92.11,92.13 143.87,217.07 143.87,347.35 0,130.28 -51.76,255.21 -143.87,347.32 -92.12,92.12 -217.06,143.89 -347.34,143.89z"/>
  <path class="fil1" d="M7840.15 6183.66l29.19 -2.14c12.04,-0.22 24.05,-1.41 35.9,-3.6 16.53,-2.05 32.91,-5.17 49.05,-9.32l29.18 -7.66c10.07,-3.36 20.34,-7.42 31.36,-11.49l16.73 -6.23 17 -8.36c12.11,-5.34 23.86,-11.5 35.16,-18.44 55.25,-31.77 103.62,-74.25 142.34,-124.88 11.56,-14.43 22.05,-29.71 31.35,-45.69 10.26,-16.47 19.29,-33.67 27.03,-51.46 8.37,-18.55 15.74,-37.57 22.01,-56.93 2.64,-10.06 5.26,-20.1 7.88,-30.64l4.08 -15.54 2.38 -16.02 5.04 -32.78 1.42 -33.5 0 -17.22 0 -17.23c0,-11.73 0,-23.92 -2.14,-35.17 -5.91,-48.78 -18.73,-96.47 -38.06,-141.65 -44.35,-100.02 -120.56,-182.54 -216.75,-234.71 -52.12,-27.85 -108.87,-45.91 -167.5,-53.36 -60.27,-6.7 -123.69,-3.33 -188.04,-4.06l-4028.87 1.91c-48.6,0.67 -96.87,7.82 -143.56,21.29 -45.85,14.82 -89.48,35.86 -129.68,62.44 -39.1,27.02 -74.36,59.21 -104.78,95.7 -29.57,37.17 -53.74,78.33 -71.79,122.27 -17.43,43.85 -28.68,89.92 -33.5,136.86 -3.84,46.62 -1.43,93.51 7.17,139.49 18.03,91.2 61.97,175.26 126.58,242.15 63.32,65.87 144.06,112.42 232.8,134.21 21.72,5.42 43.78,9.42 66.02,11.97 22.51,0 44.52,3.1 67.23,2.62l657.97 0 1811.42 1.43 1220.23 1.93 332.08 1.2 86.38 0 29.42 0 -29.42 0 -86.38 0 -332.08 0 -1220.23 2.14 -1811.42 1.19 -657.97 0c-22.48,0 -45.68,-1.67 -68.42,-2.62 -22.79,-2.62 -45.42,-6.7 -67.71,-12.21 -91.15,-22.15 -174.15,-69.76 -239.24,-137.33 -32.73,-34.14 -60.58,-72.62 -82.8,-114.35 -21.94,-42.3 -38.04,-87.38 -47.86,-134 -8.75,-47.33 -11.18,-95.58 -7.17,-143.55 9.11,-97.28 46.63,-189.72 107.91,-265.83 62.16,-77.17 145.99,-134.02 240.7,-163.15 47.68,-13.92 97.02,-21.34 146.68,-22.03l4028.87 1.69c64.35,0 127.27,-2.41 189,4.77 59.94,7.39 117.95,25.87 171.07,54.56 97.59,53.28 174.77,137.42 219.4,239.26 19.48,45.8 32.29,94.13 38.06,143.55 1.19,11.98 1.19,23.94 1.91,35.65l0 17.47 0 17.22c0,11.49 -1.2,23.93 -1.68,34.21 -0.48,10.3 -3.6,22.28 -5.26,33.03l-2.39 16.26 -4.07 15.81c-2.87,10.52 -5.51,20.82 -8.14,30.86 -7.88,19.63 -13.16,39.72 -22.48,57.67 -8.06,17.91 -17.33,35.27 -27.75,51.91 -9.54,15.98 -20.18,31.23 -31.84,45.71 -39.1,50.85 -87.88,93.48 -143.55,125.36 -11.54,6.72 -23.44,12.81 -35.65,18.19l-17.24 8.13 -16.73 6.23c-11.26,4.07 -21.53,8.13 -31.83,11.26l-29.19 7.42c-16.28,4.1 -32.83,7.06 -49.52,8.84 -11.88,1.91 -23.87,2.96 -35.91,3.1l-29.42 6.23z"/>
  <path class="fil0" d="M7806.44 5792.2c85.38,-85.4 85.38,-223.85 -0.03,-309.26 -85.37,-85.4 -223.85,-85.4 -309.24,0 -85.4,85.41 -85.4,223.86 0,309.26 85.38,85.38 223.86,85.38 309.26,0z"/>
  <path class="fil1" d="M7651.64 5896.07c-45.63,0.05 -90.27,-13.45 -128.23,-38.77 -37.97,-25.32 -67.57,-61.35 -85.04,-103.51 -17.5,-42.16 -22.08,-88.56 -13.18,-133.31 8.89,-44.78 30.85,-85.88 63.13,-118.17 32.26,-32.25 73.39,-54.24 118.14,-63.13 44.78,-8.89 91.15,-4.29 133.32,13.18 42.16,17.5 78.16,47.09 103.48,85.08 25.35,37.96 38.84,82.59 38.79,128.22 -0.07,61.09 -24.37,119.64 -67.57,162.85 -43.2,43.2 -101.77,67.5 -162.85,67.55zm0 -437.11c-40.89,-0.05 -80.9,12.01 -114.92,34.71 -34.03,22.67 -60.57,54.96 -76.23,92.73 -15.69,37.77 -19.82,79.32 -11.88,119.45 7.97,40.1 27.64,76.97 56.54,105.91 28.89,28.92 65.73,48.63 105.84,56.63 40.1,8.01 81.68,3.93 119.47,-11.71 37.77,-15.64 70.07,-42.13 92.79,-76.13 22.73,-34 34.87,-73.98 34.87,-114.88 0,-54.79 -21.74,-107.34 -60.47,-146.08 -38.72,-38.77 -91.22,-60.58 -146.01,-60.63z"/>
  <polygon class="fil1" points="7834.36,5784.79 7821.58,5805.03 8006.7,5921.91 8019.46,5901.66 "/>
  <path class="fil6" d="M1566.62 10400.34l14.6 695.78 -915.89 21.53c3.11,-82.79 472.53,-260.08 472.53,-260.08l-28.71 -445.26 457.46 -11.97z"/>
  <g id="_2425119323168">
   <path class="fil7" d="M1420.16 10813.56c8.62,2.05 16.17,7.27 21.13,14.63 4.97,7.34 6.98,16.28 5.66,25.06 -2.42,8.71 -8.02,16.17 -15.69,20.89 -7.67,4.74 -16.85,6.43 -25.7,4.72 -4.79,-0.65 -9.38,-2.29 -13.46,-4.87 -4.09,-2.55 -7.58,-5.96 -10.24,-9.99 -2.66,-4.03 -4.42,-8.58 -5.17,-13.35 -0.75,-4.77 -0.47,-9.63 0.83,-14.28 1.3,-4.65 3.58,-8.97 6.69,-12.66 3.1,-3.69 6.97,-6.68 11.33,-8.75 4.36,-2.07 9.11,-3.2 13.94,-3.27 4.82,-0.06 9.62,0.88 14.03,2.82m-3.34 -0.96l0 0 0 0z"/>
  </g>
  <g id="_2425119323696">
   <path class="fil7" d="M1581.22 11096.12l-4.55 -70.13 -876.41 47.85c0,0 -40.19,17.72 -34.93,44.76l915.89 -22.48z"/>
  </g>
  <path class="fil1" d="M1123.02 10853.49c0,4.31 22.48,5.74 44.98,18.91 22.49,13.16 34.46,30.4 38.52,28.7 4.06,-1.67 -3.11,-26.06 -30.62,-41.39 -27.52,-15.3 -54.08,-10.04 -52.88,-6.22z"/>
  <path class="fil1" d="M1027.79 10893.45c0,4.07 18.66,10.78 34.45,28.25 15.79,17.46 20.58,36.36 23.93,36.13 3.35,-0.24 6.7,-23.94 -13.16,-45.71 -19.86,-21.77 -45.22,-22.73 -45.22,-18.67z"/>
  <path class="fil1" d="M976.11 11003.27c4.06,0 9.81,-20.34 -2.15,-43.3 -11.96,-22.96 -33.25,-31.57 -35.17,-27.99 -1.91,3.6 11.49,15.54 21.06,34.45 9.57,18.91 11.96,36.6 16.27,36.84z"/>
  <path class="fil1" d="M1128.75 10751.35c1.91,3.81 22.49,-2.41 47.85,-1.43 25.37,0.96 45.22,8.13 47.85,4.53 2.63,-3.58 -17.23,-18.41 -47.85,-19.15 -30.62,-0.71 -50.48,12.92 -47.85,16.05z"/>
  <path class="fil1" d="M1147.42 10648.2c15.16,3.55 30.97,3.14 45.93,-1.19 16.47,-3.17 32.53,-8.23 47.85,-15.07 8.91,-4.06 17.54,-8.71 25.84,-13.88 5.06,-2.79 9.65,-6.34 13.63,-10.52 2.86,-2.98 4.57,-6.87 4.83,-10.99 0.26,-4.13 -0.94,-8.2 -3.39,-11.52 -2.32,-3.03 -5.34,-5.43 -8.8,-7.08 -3.46,-1.62 -7.25,-2.38 -11.07,-2.23 -5.75,0.14 -11.46,1.02 -16.99,2.62 -9.78,2.5 -19.3,5.87 -28.48,10.06 -15.15,6.85 -29.12,16.05 -41.39,27.28 -20.82,18.89 -27.76,34.93 -26.08,35.65 1.68,0.71 11.97,-11.98 33.26,-28 12.42,-9.2 25.92,-16.83 40.19,-22.72 8.58,-3.32 17.37,-6.04 26.32,-8.16 9.57,-2.62 17.7,-2.86 20.34,0 2.62,2.88 0,2.17 0,5.03 -2.9,3.01 -6.21,5.58 -9.81,7.66 -7.74,4.96 -15.72,9.49 -23.93,13.63 -14.08,7.08 -28.83,12.78 -44.03,17 -15.04,3.05 -29.83,7.21 -44.26,12.43z"/>
  <path class="fil1" d="M1152.71 10654.19c8.27,-12.4 12.15,-27.22 11.01,-42.1 0.5,-16.27 -2.02,-32.5 -7.43,-47.86 -3.25,-9.08 -7.43,-17.81 -12.44,-26.06 -2.82,-5.77 -7.03,-10.72 -12.26,-14.45 -5.22,-3.72 -11.29,-6.08 -17.65,-6.87 -4.01,0.19 -7.88,1.48 -11.22,3.72 -3.33,2.24 -5.98,5.33 -7.68,8.97 -2.25,5.07 -3.63,10.49 -4.07,16.04 -1.57,9.66 -1.57,19.51 0,29.19 3.06,16.24 10.14,31.45 20.58,44.25 18.65,22.03 37.33,26.57 37.8,25.13 0.48,-1.43 -14.36,-9.8 -28.71,-31.12 -8.14,-12.13 -13.45,-25.96 -15.55,-40.41 -1.32,-8.34 -1.32,-16.82 0,-25.13 0,-9.08 4.54,-16.76 8.14,-15.79 3.59,0.96 12.68,6.46 16.51,13.88 4.72,7.59 8.72,15.6 11.96,23.92 5.51,13.76 8.9,28.28 10.05,43.06 3.59,25.13 -0.71,40.92 0.96,41.63z"/>
  <path class="fil6" d="M2260.7 10458.25l88.28 690.24 909.18 -112.91c-15.31,-81.36 -505.54,-187.81 -505.54,-187.81l-36.86 -444.79 -455.07 55.27z"/>
  <g id="_2425119325712">
   <path class="fil7" d="M2465.99 10845.36c-8.27,3.29 -15.02,9.56 -18.89,17.6 -3.86,8.01 -4.55,17.21 -1.93,25.73 3.72,8.17 10.4,14.69 18.67,18.21 8.27,3.55 17.57,3.89 26.06,0.93 8.8,-3.45 15.95,-10.13 20,-18.66 4.06,-8.53 4.68,-18.29 1.79,-27.28 -4.79,-7.89 -12.3,-13.78 -21.1,-16.54 -8.8,-2.77 -18.31,-2.24 -26.75,1.48m2.14 -1.46l0 0 0 0z"/>
  </g>
  <g id="_2425119325520">
   <path class="fil7" d="M2348.96 11148.52l-5.98 -70.12 873.77 -81.81c0,0 41.39,10.52 41.39,38.98l-909.17 112.94z"/>
  </g>
  <path class="fil1" d="M2765.79 10841.54c0,4.29 -21.54,8.85 -41.88,25.13 -20.33,16.26 -29.68,35.16 -33.97,33.95 -4.32,-1.19 0,-26.05 23.92,-45.2 23.93,-19.15 52.4,-17.95 51.93,-13.88z"/>
  <path class="fil1" d="M2865.56 10866.89c1.68,4.07 -16.73,13.63 -29.66,33.25 -12.92,19.63 -15.09,38.78 -19.38,39.25 -4.32,0.47 -10.3,-23.92 6.22,-47.86 16.5,-23.91 42.34,-27.99 42.82,-24.65z"/>
  <path class="fil1" d="M2932.8 10968.1c-3.84,1.46 -12.45,-18.64 -3.84,-43.06 8.61,-24.39 28.22,-36.13 30.4,-33.03 2.14,3.13 -9.11,17.24 -15.81,37.34 -6.7,20.1 -6.23,37.78 -10.75,38.74z"/>
  <path class="fil1" d="M2745.47 10741.28c-1.45,4.06 -22.5,0 -47.85,5.51 -25.37,5.49 -43.56,14.6 -46.18,11.24 -2.62,-3.34 14.11,-20.58 43.53,-25.83 29.45,-5.26 52.41,5.49 50.5,9.08z"/>
  <path class="fil1" d="M2711.49 10642c-14.47,5.61 -30.12,7.42 -45.47,5.27 -16.69,-0.58 -33.26,-3.22 -49.28,-7.92 -9.49,-2.55 -18.76,-5.81 -27.75,-9.8 -5.44,-2 -10.52,-4.84 -15.07,-8.37 -3.24,-2.55 -5.49,-6.13 -6.37,-10.16 -0.86,-4 -0.31,-8.2 1.58,-11.85 1.96,-3.32 4.62,-6.1 7.82,-8.23 3.16,-2.12 6.81,-3.48 10.61,-3.98 5.7,-0.74 11.49,-0.74 17.21,0 9.97,0.96 19.84,2.89 29.42,5.75 16.08,4.51 31.33,11.54 45.23,20.82 23.92,15.78 32.31,30.61 30.86,31.57 -1.43,0.96 -13.63,-10.27 -36.84,-22.72 -21.69,-11.92 -45.66,-19.1 -70.33,-21.06 -10.07,-1.19 -18.19,0 -20.1,4.06 -1.91,4.07 0,2.41 1.67,4.79 3.36,2.52 7.06,4.55 11.01,5.98 8.3,3.94 16.83,7.3 25.58,10.04 15,4.87 30.35,8.39 45.95,10.53 14.88,0.62 29.66,2.39 44.27,5.27z"/>
  <path class="fil1" d="M2706.44 10648.23c-9.99,-11.14 -15.95,-25.28 -16.98,-40.2 -2.86,-15.83 -2.86,-32.03 0,-47.85 1.74,-9.47 4.56,-18.7 8.37,-27.52 1.88,-6.1 5.29,-11.63 9.89,-16.07 4.6,-4.43 10.26,-7.63 16.43,-9.3 3.98,-0.45 8.01,0.22 11.63,1.91 3.62,1.67 6.72,4.33 8.94,7.68 2.84,4.79 5.01,9.94 6.46,15.3 2.82,9.37 4.03,19.18 3.58,28.94 -0.31,16.91 -5.1,33.41 -13.88,47.86 -15.07,23.93 -33,31.83 -33.74,30.4 -0.71,-1.45 12.92,-11.97 23.94,-34.96 6.2,-13.23 9.39,-27.7 9.32,-42.34 -0.05,-8.1 -1.33,-16.18 -3.81,-23.92 -2.41,-9.1 -6.94,-16.04 -10.53,-14.59 -3.58,1.43 -11.24,8.37 -14.12,16.02 -3.52,7.72 -6.41,15.73 -8.61,23.92 -3.19,14.45 -4.41,29.25 -3.6,44.04 2.41,25.13 8.15,40.68 6.7,40.68z"/>
  <path class="fil1" d="M856.28 6707.89l1425.74 45.68c0,0 336.17,2243.76 326.83,2400.01l207.19 1626.95 -602.93 21.29c0,0 -95.7,-528.04 -161.02,-889.31 -44.02,-239.26 -124.41,-592.9 -146.18,-793.63 -21.77,-200.73 -374.44,-1603.04 -374.44,-1603.04 0,0 26.08,1626.96 25.36,1693.95 -0.71,67 69.87,1590.12 69.87,1590.12l-598.14 0c-30.86,-274.9 -104.32,-1375.03 -119.64,-1597.29 -28.71,-401.46 -119.63,-1535.56 -131.83,-1825.3 -12.2,-289.74 79.19,-669.43 79.19,-669.43z"/>
  <path class="fil6" d="M950.29 6718.87c6.67,-33.74 6.67,-68.42 0,-102.16 -7.02,33.69 -7.02,68.48 0,102.16z"/>
  <path class="fil6" d="M890.95 6745.92c11.35,-43.04 7.55,-88.65 -10.76,-129.21 0.65,21.65 2.72,43.23 6.22,64.59 0.06,21.62 1.59,43.2 4.54,64.61z"/>
  <path class="fil6" d="M1423.51 6638.98c11.57,2.36 22.11,8.33 30.14,16.98 4.02,4.55 6.97,9.94 8.67,15.79 1.69,5.81 2.08,11.94 1.14,17.95 -2.03,6.88 -5.91,13.07 -11.24,17.88 -5.32,4.82 -11.86,8.07 -18.91,9.4 -7.06,1.35 -14.34,0.71 -21.04,-1.81 -6.71,-2.56 -12.6,-6.89 -17,-12.54 -3.02,-5.24 -4.88,-11.08 -5.46,-17.12 -0.58,-6.01 0.14,-12.08 2.11,-17.81 4.2,-11.11 11.94,-20.53 22.01,-26.8 0,0 -4.06,0 -10.05,2.62 -8.5,4.84 -15.09,12.44 -18.66,21.53 -2.99,6.77 -4.38,14.14 -4.05,21.53 0.33,7.39 2.37,14.59 5.96,21.08 5.27,7.59 12.63,13.5 21.19,17 8.56,3.51 17.95,4.45 27.03,2.74 9.09,-1.72 17.48,-6.06 24.17,-12.44 6.69,-6.39 11.37,-14.57 13.5,-23.58 0.98,-7.34 0.23,-14.83 -2.17,-21.84 -2.41,-7.03 -6.42,-13.39 -11.71,-18.59 -6.75,-7.08 -15.68,-11.71 -25.36,-13.17 -6.7,-0.71 -10.29,0.72 -10.29,1.22z"/>
  <path class="fil6" d="M2080.78 9115.05c52.06,-15.76 103.05,-34.86 152.64,-57.18 50.98,-19.07 100.68,-41.36 148.82,-66.76 -52.11,15.85 -103.17,34.96 -152.89,57.2 -50.87,19.12 -100.5,41.42 -148.58,66.74z"/>
  <g>
   <path class="fil1" d="M2157.57 3335.52c-4.55,-83.02 -55.74,-134.23 -127.29,-176.58 -36.06,-20.93 -76.65,-32.84 -118.31,-34.72 -41.66,-1.88 -83.15,6.34 -120.95,23.96 -50.24,23.92 -94.26,64.59 -149.29,71.77 -90.92,11.73 -176.81,-71.77 -265.82,-51.45 -26.56,6.39 -50.09,21.74 -66.59,43.49 -16.51,21.76 -24.97,48.56 -23.96,75.84 1.02,27.3 11.45,53.38 29.53,73.87 18.08,20.46 42.69,34.05 69.64,38.41 -59.57,8.61 -93.07,83.98 -71.78,139.74 21.29,55.74 84.22,88.51 143.55,89.73 60.44,-1.94 119.19,-20.38 169.87,-53.37 51.91,-30.13 100.49,-66.52 154.8,-92.37 53.32,-28.77 115.08,-37.84 174.43,-25.58 78.71,20.82 134.46,95.71 154.8,173.7 20.34,77.99 11.72,161.99 0,242.36 -11.72,80.4 -27.76,161.51 -20.1,242.62 -0.06,4.6 0.95,9.16 2.94,13.31 1.99,4.15 4.92,7.77 8.54,10.61 11.97,6.7 25.84,-4.53 34.69,-15.07 100.76,-119.55 177.01,-257.76 224.42,-406.73 27.51,-86.15 42.58,-170.13 9.81,-254.34 -32.77,-84.23 -143.55,-164.37 -213.9,-130.15l0.96 0.96zm0 0l0 0 0 0z"/>
  </g>
  <path class="fil8" d="M2234.84 3736.51l-132.79 819.95c-23.93,153.12 -124.41,301.23 -364.63,250.98 -205.28,-59.32 -189.97,-206.96 -163.17,-389.02 0,0 -225.86,-58.63 -205.52,-288.3 9.57,-111.04 47.85,-337.86 85.89,-542.64 19.42,-106.05 78.06,-200.92 164.24,-265.67 86.19,-64.78 193.61,-94.73 300.88,-83.88l22.25 2.14c237.11,39 337.35,260.55 292.85,496.45z"/>
  <path class="fil9" d="M1574.27 4418.41c105.86,10.35 212.46,-9.82 307.22,-58.15 0,0 -89.96,170.35 -316.54,126.82l9.33 -68.67z"/>
  <path class="fil1" d="M1499.62 3788.2c-0.96,8.52 1.47,17.08 6.75,23.83 5.27,6.74 12.99,11.18 21.48,12.3 4.13,0.78 8.36,0.74 12.47,-0.17 4.1,-0.88 7.98,-2.62 11.4,-5.06 3.42,-2.42 6.31,-5.52 8.5,-9.13 2.19,-3.58 3.63,-7.56 4.24,-11.73 0.95,-8.51 -1.47,-17.07 -6.75,-23.82 -5.27,-6.75 -12.99,-11.16 -21.48,-12.3 -4.12,-0.74 -8.35,-0.67 -12.44,0.23 -4.09,0.91 -7.96,2.65 -11.36,5.08 -3.42,2.43 -6.31,5.51 -8.51,9.08 -2.2,3.58 -3.66,7.53 -4.29,11.68z"/>
  <path class="fil1" d="M1492.44 3704.94c3.59,4.79 30.39,-11.26 65.56,-7.42 35.17,3.82 59.33,23.92 63.64,19.86 4.31,-4.07 -1.43,-9.82 -11.72,-19.14 -14.23,-12.14 -31.86,-19.58 -50.48,-21.29 -18.33,-2.03 -36.82,2 -52.64,11.47 -11.72,7.2 -16.03,14.37 -14.36,16.52z"/>
  <path class="fil1" d="M1820.47 3838.91c-0.96,8.53 1.47,17.08 6.75,23.82 5.27,6.78 12.99,11.18 21.48,12.33 4.12,0.79 8.36,0.72 12.47,-0.16 4.1,-0.91 7.98,-2.62 11.4,-5.06 3.42,-2.46 6.32,-5.56 8.5,-9.14 2.19,-3.57 3.63,-7.58 4.24,-11.72 0.96,-8.52 -1.47,-17.08 -6.75,-23.83 -5.27,-6.77 -12.99,-11.17 -21.48,-12.3 -4.12,-0.76 -8.35,-0.69 -12.44,0.24 -4.09,0.9 -7.96,2.62 -11.36,5.06 -3.42,2.42 -6.31,5.52 -8.51,9.08 -2.2,3.58 -3.66,7.55 -4.29,11.68z"/>
  <path class="fil1" d="M1831.49 3746.33c3.83,4.53 30.39,-11.25 65.56,-7.65 35.17,3.58 59.34,23.92 63.65,20.1 4.31,-3.83 -1.44,-9.82 -11.72,-19.14 -14.23,-12.14 -31.86,-19.57 -50.48,-21.29 -18.3,-1.93 -36.73,2 -52.64,11.23 -11.72,7.18 -16.02,14.62 -14.36,16.76z"/>
  <path class="fil1" d="M1684.1 3994.92c-17.96,-7.85 -36.86,-13.31 -56.22,-16.27 -8.86,-1.69 -17.23,-4.32 -18.19,-10.78 0.26,-9.34 3.25,-18.4 8.61,-26.08 10.77,-20.82 22.01,-42.82 33.5,-65.78 47.85,-93.8 81.59,-171.31 77.76,-173.24 -34.78,53.38 -65.34,109.37 -91.39,167.5l-32.54 66.52c-6.61,10.28 -9.48,22.54 -8.14,34.69 0.94,3.33 2.64,6.42 4.96,8.98 2.32,2.56 5.22,4.56 8.44,5.85 4.88,1.71 9.94,2.9 15.07,3.58 19.1,4.05 38.63,5.74 58.14,5.03z"/>
  <path class="fil1" d="M1842.94 3607.33c2.39,10.04 38.04,9.08 78.96,18.17 40.91,9.11 73.21,23.94 79.44,15.81 2.87,-4.07 -1.92,-13.63 -14.6,-23.93 -16.73,-12.99 -36.16,-22.08 -56.87,-26.56 -20.71,-4.46 -42.16,-4.23 -62.76,0.71 -16.75,4.32 -25.12,11.26 -24.17,15.81z"/>
  <path class="fil1" d="M1515.64 3604.21c5.51,8.84 30.63,2.86 59.82,5.51 29.19,2.62 53.36,10.75 59.82,2.86 2.87,-3.81 0,-12.2 -10.29,-20.82 -13.53,-10.39 -29.82,-16.56 -46.84,-17.76 -17.02,-1.19 -34.02,2.68 -48.86,11.07 -11.72,7.17 -16.03,15.07 -13.64,19.15z"/>
  <path class="fil8" d="M2199.19 3904.48c4.06,-1.43 162.21,-30.86 141.4,125.37 -20.82,156.24 -173.46,103.38 -172.98,98.83 0.48,-4.55 31.59,-224.2 31.59,-224.2z"/>
  <path class="fil9" d="M2223.13 4075.79c0,0 2.39,2.15 6.7,5.04 6.15,3.55 13.41,4.65 20.34,3.1 10.96,-5.11 20.37,-12.99 27.26,-22.94 6.89,-9.91 11.02,-21.47 11.98,-33.52 2.26,-13.33 1.45,-26.99 -2.39,-39.96 -0.74,-5.15 -2.74,-10.01 -5.84,-14.21 -3.08,-4.17 -7.16,-7.51 -11.87,-9.72 -2.99,-1.29 -6.35,-1.48 -9.47,-0.5 -3.12,0.96 -5.79,3 -7.52,5.77 -2.87,4.08 -2.15,7.42 -3.11,7.42 -0.96,0 -2.87,-3.1 0,-9.32 1.34,-3.75 3.97,-6.87 7.42,-8.85 4.71,-2.69 10.28,-3.48 15.55,-2.17 5.99,2.32 11.32,6.11 15.49,10.99 4.18,4.88 7.07,10.73 8.43,17 4.86,14.5 6.08,29.93 3.6,44.99 -1.08,13.9 -6.17,27.18 -14.67,38.22 -8.5,11.04 -20.03,19.38 -33.18,23.99 -4.31,0.58 -8.69,0.17 -12.82,-1.14 -4.14,-1.33 -7.93,-3.55 -11.1,-6.51 -5.03,-3.84 -5.27,-7.42 -4.79,-7.66z"/>
  <path class="fil1" d="M1473.31 3374.77c26.78,-42.2 63.72,-76.99 107.43,-101.22 91.69,-57.01 199.01,-83.71 306.73,-76.32 108.13,8.42 208.76,58.51 280.65,139.71 54.97,66.59 89.17,147.9 98.33,233.76 8.94,85.53 0.81,171.98 -23.93,254.33 -7.66,37.1 -26.04,71.13 -52.88,97.86 -17.94,15.33 -47.85,23.93 -63.88,7.68 -8.95,-10.73 -14.08,-24.11 -14.59,-38.06 -17.94,-123.93 -34.69,-257.2 21.29,-369.18 -24.75,-42.99 -58.06,-80.44 -97.86,-110.06 -20,-14.66 -42.71,-25.2 -66.83,-31 -24.11,-5.79 -49.14,-6.72 -73.62,-2.74 -71.78,14.36 -122.01,78.01 -182.55,119.64 -43.63,29.49 -93.66,48.18 -145.96,54.55 -52.29,6.37 -105.34,0.22 -154.79,-17.95l62.45 -161.01z"/>
  <g>
   <path class="fil9" d="M1652.97 4089.91c1.81,14.85 5.76,29.35 11.72,43.06 3.05,6.87 7.5,12.99 13.07,18.02 5.56,5.01 12.11,8.82 19.23,11.18 7.81,1.62 15.91,1.29 23.56,-1.02 7.65,-2.29 14.6,-6.46 20.22,-12.14 10.98,-11.66 18,-26.49 20.1,-42.34 2.39,-14.38 0,-32.31 -14.12,-37.1 -5.82,-1.32 -11.88,-1.32 -17.7,0l-79.91 14.59 3.83 5.75zm0 0l0 0 0 0z"/>
  </g>
  <path class="fil1" d="M1669.75 4156.66c13.09,3.51 26.7,4.65 40.19,3.34 13.91,-2.29 26.46,-9.73 35.17,-20.82 5.12,-6.75 8.74,-14.5 10.64,-22.74 1.89,-8.25 2.02,-16.82 0.37,-25.11 -0.8,-4.23 -2.17,-8.33 -4.07,-12.18 -2.15,-3.84 -1.68,-3.6 -5.02,-3.6 -4.27,0.48 -8.51,1.19 -12.69,2.14l-13.16 2.41 -45.45 7.66c-13.86,3.29 -28.13,4.51 -42.35,3.58 12.66,-6.53 26.33,-10.9 40.43,-12.92 12.92,-3.34 28,-6.7 44.99,-10.52l12.91 -2.88c4.79,0 8.38,-2.15 14.6,-2.62 3.86,-0.32 7.71,0.61 11,2.62 2.81,2.19 5.1,4.96 6.7,8.15 2.46,4.91 4.24,10.14 5.26,15.55 2.09,10.2 1.86,20.74 -0.67,30.85 -2.52,10.08 -7.28,19.51 -13.93,27.52 -11.02,12.87 -26.66,20.86 -43.54,22.27 -10.95,1.33 -22.05,-0.41 -32.06,-5.04 -6.94,-3.84 -9.8,-6.93 -9.33,-7.65z"/>
  <path class="fil8" d="M1087.13 3752.79l-37.08 -10.06 -577.33 561.07 -468.47 56.46c0,0 4.79,-141.39 180.64,-321.81 157.91,-161.25 525.17,-352.65 649.59,-451.72 16.06,-13.56 34.24,-24.39 53.83,-32.04l198.83 198.11z"/>
  <path class="fil8" d="M1087.38 3485.78l59.1 -16.76 139.24 -66.03 158.39 59.09c0,0 -3.6,54.07 -45.22,39.24l166.04 54.79c0,0 -13.64,39.48 -21.06,42.1 -7.42,2.65 97.38,11.26 97.38,11.26 0,0 0,53.37 -99.29,52.38 -99.3,-0.96 -137.81,-17.92 -137.81,-17.92l-79.68 21.28 3.11 47.85 108.62 -1.67 -5.02 60.77c-46.15,9.73 -92.79,16.93 -139.73,21.54 0,0 -167.48,2.38 -212.94,-19.63 -45.45,-22.01 -103.36,-53.36 -103.36,-53.36l-86.84 -165.57 199.06 -69.38z"/>
  <path class="fil9" d="M1236.89 3513.77c0,1.43 9.34,-3.1 23.93,-9.8 19.54,-8.39 38.34,-18.4 56.22,-29.92l-7.18 0 6.46 4.07c19.77,12.64 42.07,20.8 65.32,23.92 17.7,2.41 28.7,0 28.7,0 -30.52,-7.27 -59.96,-18.55 -87.56,-33.5l-5.98 -3.82 -3.59 -2.38 -3.59 2.62c-19.38,13.4 -39.72,23.92 -53.12,32.31 -13.39,8.37 -20.81,15.31 -19.62,16.5z"/>
  <path class="fil9" d="M1287.88 3598.22c0,0 10.77,3.84 26.8,-3.1 16.02,-6.93 33.97,-23.93 56.7,-33.5l-5.74 0c10.2,6.87 20.92,12.95 32.06,18.17 28.01,13.4 58.47,20.89 89.48,22.03 12.74,1.62 25.69,0.23 37.8,-4.07 -41.94,-3.37 -83.1,-13.21 -122.02,-29.19 -10.61,-4.94 -20.83,-10.61 -30.63,-17l-3.11 -1.68 -2.63 0c-25.84,13.17 -40.91,30.64 -55.02,37.82 -14.12,7.17 -23.69,8.61 -23.69,10.51z"/>
  <path class="fil9" d="M1139.54 3650.15c0,1.91 12.2,-1.67 31.1,-1.43 24.48,0.32 48.36,7.52 68.91,20.82 13.6,8.78 25.24,20.24 34.22,33.74l1.43 2.14 2.15 0c18.43,5.24 37.56,7.58 56.7,6.94 -17.13,-8.71 -35.55,-14.59 -54.55,-17.47l3.59 2.41c-8.98,-15.57 -21.53,-28.78 -36.6,-38.53 -22.49,-14.76 -49.29,-21.48 -76.08,-19.14 -20.58,2.41 -31.59,9.34 -30.86,10.53z"/>
  <path class="fil9" d="M975.16 3720.25c1.44,1.26 3.05,2.31 4.79,3.12l15.08 8.61 57.9 31.32c13.69,8.42 28.4,15 43.79,19.63 18.51,4.32 37.3,7.34 56.22,9.1 40.68,4.06 87.1,5.72 138.53,5.72l62.45 -6.46c23.11,-1.9 45.99,-5.84 68.42,-11.71l2.4 0 0 -3.12c3.35,-20.82 6.94,-43.54 10.77,-66.74l1.19 -6.7 -6.7 0 -103.36 4.29 6.22 5.27c0,-14.6 -2.15,-30.88 -3.11,-47.86l-4.54 6.23 79.91 -21.29 -4.07 0c38.79,11.8 79.08,17.91 119.64,18.17 21.02,1.33 42.13,0.29 62.93,-3.1 11.35,-1.41 22.27,-5.19 32.04,-11.13 9.78,-5.97 18.18,-13.9 24.66,-23.32 3.6,-6.29 5.73,-13.33 6.22,-20.57l0 -5.51 -5.98 0c-23.93,-2.15 -49.53,-4.3 -73.69,-6.94l-17.71 -2.39 -3.83 0 0 1.19c0.72,0.65 1.24,1.48 1.5,2.42 0.25,0.95 0.23,1.93 -0.05,2.86 0,2.14 -4.31,5.01 -3.35,4.06 1.41,-0.58 2.69,-1.39 3.83,-2.39 2.59,-2.69 4.76,-5.77 6.46,-9.08 5.53,-10.99 10.33,-22.34 14.36,-33.97l2.15 -5.98 -5.98 -1.91 -167.49 -54.56 -3.82 10.99c6.72,2.48 13.94,3.32 21.05,2.41 7.29,-1.31 13.9,-5.1 18.66,-10.78 8,-10.42 12.67,-23.01 13.4,-36.12l0 -4.07 -4.31 -1.68 -158.63 -58.39 -1.91 0 -1.92 0 -139.01 66.76 -58.14 16.76 -50.72 17.93 -80.39 29.18 -50.49 18.67c-5.97,1.78 -11.74,4.2 -17.22,7.17 6.06,-1.33 12.06,-3 17.94,-5.03l51.2 -16.5 81.11 -27.03 50.72 -16.98 58.39 -15.81 139.72 -65.31 -4.06 0 158.38 59.56 -3.82 -5.72c-0.62,10.66 -4.37,20.89 -10.77,29.42 -3.45,3.43 -7.87,5.72 -12.65,6.58 -4.79,0.87 -9.72,0.22 -14.15,-1.78l-3.83 11.23 165.81 55.03 -3.83 -7.89c-3.66,11.04 -8.22,21.77 -13.63,32.07 -1.03,2.14 -2.32,4.15 -3.83,5.98 0.67,0.83 1.15,1.81 1.43,2.86 -2.39,-6.22 0,-1.67 -1.68,-2.86l-1.68 0c-1.09,0.9 -1.85,2.16 -2.15,3.58 -0.23,1.02 -0.19,2.09 0.11,3.09 0.29,1.01 0.83,1.91 1.57,2.65 1.92,1.91 1.44,1.19 1.92,1.43l2.15 0 5.02 0 18.43 2.41c23.93,2.87 47.85,5.01 73.93,7.18l-5.51 -5.99c-0.56,4.97 -2.1,9.76 -4.54,14.12 -5.56,7.82 -12.69,14.37 -20.92,19.28 -8.24,4.89 -17.41,8.04 -26.93,9.18 -19.92,3.24 -40.15,4.2 -60.3,2.86 -38.97,-0.12 -77.71,-5.74 -115.08,-16.73l-2.4 0 -1.67 0 -79.68 21.53 -4.79 0 0 4.79c0,16.5 2.15,32.78 3.11,47.85l0 5.75 5.75 0 103.12 -4.79 -5.74 -6.46c-3.6,23.92 -7.18,46.18 -10.29,67l2.87 -3.84c-21.38,5.36 -43.13,9.11 -65.07,11.26l-61.97 6.94c-50.96,0 -97.13,0 -137.57,-3.84 -18.66,-1.27 -37.21,-3.82 -55.51,-7.66 -15.05,-4.26 -29.51,-10.37 -43.07,-18.19l-58.86 -29.19 -15.54 -7.17c2.63,-0.48 0.96,-1.2 0.71,-0.96z"/>
  <path class="fil9" d="M1175.19 3540.09c15.18,25.47 36.27,46.88 61.49,62.44 23.04,18.7 50.18,31.64 79.19,37.82 1.43,-3.36 -33.5,-20.34 -71.78,-47.86 -38.28,-27.51 -66.04,-54.79 -68.91,-52.4z"/>
  <path class="fil10" d="M9.25 4342.8l463.44 -39 546.47 207.93 119.63 73.2 -170.35 584.26c0,0 -856.3,-504.59 -892.67,-547.64 -32.62,-37.75 -55.69,-82.76 -67.27,-131.26 -11.57,-48.52 -11.32,-99.11 0.76,-147.49z"/>
  <path class="fil10" d="M2483.24 4772.26l159.35 98.83 -367.98 1448.7 66.75 835.26c-95.7,82.79 -334.95,153.83 -789.55,127.99 -454.59,-25.82 -757.97,-223.69 -757.97,-223.69l43.54 -859.18 103.6 -969.49 116.04 -662.97 350.27 25.35 136.61 -80.85 61.25 30.61 78.48 217.73 204.33 -147.88 239.26 -115.08 87.32 162.94 268.69 111.72z"/>
  <path class="fil1" d="M1056.99 4736.38c-5.1,10.3 -9.26,21.03 -12.44,32.07 -7.66,21.05 -17.23,51.66 -28.71,89.95 -29.25,99.64 -53.21,200.74 -71.78,302.9 -18,102.14 -30.62,205.16 -37.8,308.64 -2.63,39.72 -3.83,71.77 -4.07,94.03 -1.23,11.52 -1.23,23.16 0,34.69 2.27,-11.37 3.63,-22.89 4.07,-34.45 2.15,-23.93 4.79,-55.74 8.13,-93.56 7.42,-78.95 20.1,-188.05 41.4,-307.22 21.29,-119.14 46.65,-225.86 66.99,-302.66 9.8,-36.6 18.19,-67.23 23.93,-90.92 4.66,-10.75 8.11,-21.98 10.28,-33.5z"/>
  <path class="fil1" d="M1748.93 4747.87c11.67,-2 22.86,-6.13 33.02,-12.2 28.33,-14.93 52.88,-36.13 71.78,-61.97l-8.61 -2.39c4.97,71.36 19.37,141.78 42.82,209.34l2.63 7.65 6.7 -4.53 16.74 -11.72c82.54,-56.7 156.72,-108.63 210.07,-146.9l62.69 -45.71c7.99,-5.23 15.38,-11.3 22.01,-18.19 -8.48,3.79 -16.51,8.53 -23.93,14.11l-64.84 42.61c-54.79,36.13 -129.67,87.08 -211.98,143.56l-16.99 11.47 9.57 3.12c-23.23,-66.61 -38.33,-135.78 -44.98,-206l0 -12.92 -7.42 10.52c-17.8,25.41 -40.7,46.85 -67.23,62.92 -20.82,11.73 -32.54,16.05 -32.06,17.24z"/>
  <path class="fil1" d="M1421.39 4618.9c23.61,31.38 49.61,60.89 77.77,88.28l4.3 4.56 4.31 -4.79c16.07,-18.82 33.41,-36.48 51.92,-52.88 10.05,-8.61 19.85,-16.74 29.67,-23.92l14.59 -10.78c1.1,-0.26 2.23,-0.43 3.35,-0.48 0,0 0,0 2.15,3.6l22.25 56.94c6.06,17.98 14.09,35.22 23.93,51.43 -2.97,-18.72 -8.12,-37.01 -15.32,-54.56 -6.22,-17.93 -12.92,-37.32 -19.86,-57.89 -0.63,-2.19 -1.69,-4.22 -3.14,-5.98 -1.44,-1.79 -3.22,-3.24 -5.24,-4.29 -2.32,-0.79 -4.79,-1 -7.2,-0.62 -2.42,0.38 -4.7,1.31 -6.68,2.77l-15.31 10.98c-10.28,7.44 -20.57,15.82 -30.62,23.94 -19.07,16.73 -36.68,35.07 -52.64,54.79l8.61 0c-26.8,-29.25 -55.84,-56.37 -86.85,-81.11z"/>
  <path class="fil6" d="M1516.13 7220.36c-153.39,-28.8 -311.42,-20.98 -461.21,22.84 -149.8,43.82 -287.12,122.41 -400.79,229.34 -113.67,106.96 -200.48,239.24 -253.35,386.06 -52.88,146.85 -70.32,304.12 -50.91,458.98 19.41,154.85 75.12,302.95 162.59,432.2 87.48,129.25 204.24,236.02 340.79,311.6 136.55,75.58 289.02,117.86 445,123.37 155.98,5.48 311.05,-25.92 452.58,-91.7 190.28,-88.6 347.52,-235.33 449.05,-419.01 101.53,-183.71 142.12,-394.91 115.9,-603.15 -26.21,-208.24 -117.86,-402.79 -261.75,-555.61 -143.89,-152.81 -332.57,-256 -538.87,-294.66l0.96 -0.24zm-353.38 1882.48c-216.38,-40.87 -411.04,-157.69 -548.89,-329.41 -137.85,-171.71 -209.82,-387.03 -202.95,-607.13 6.87,-220.1 92.13,-430.5 240.42,-593.28 148.29,-162.77 349.86,-267.23 568.37,-294.56 218.5,-27.3 439.57,24.37 623.36,145.65 183.79,121.29 318.2,304.23 379.02,515.89 60.82,211.63 44.03,438.05 -47.33,638.4 -91.37,200.34 -251.28,361.48 -450.95,454.35 -175.1,81.45 -371.32,105.96 -561.06,70.09z"/>
  <path class="fil6" d="M1335.02 9233.49c261.02,0.36 512.69,-97.11 705.39,-273.19 192.7,-176.05 312.43,-417.93 335.57,-677.91 23.13,-260.01 -51.98,-519.23 -210.54,-726.56 -158.57,-207.33 -389.08,-347.72 -646.06,-393.47 -256.97,-45.76 -521.77,6.46 -742.15,146.32 -220.38,139.87 -380.36,357.21 -448.37,609.24 -68.02,251.99 -39.13,520.34 80.96,752.09 120.09,231.75 322.65,410.09 567.76,499.84 114.48,42.08 235.49,63.64 357.46,63.66zm-2.15 -1916.71c122.06,-0.07 242.8,25.3 354.5,74.55 111.7,49.24 211.88,121.27 294.14,211.44 82.27,90.17 144.8,196.53 183.62,312.26 38.8,115.73 53.03,238.31 41.76,359.86 -11.26,121.53 -47.78,239.38 -107.21,346.03 -59.43,106.62 -140.45,199.66 -237.9,273.19 -97.44,73.51 -209.16,125.86 -328.01,153.73 -118.84,27.87 -242.19,30.64 -362.16,8.11 -136.96,-25.99 -265.77,-84.09 -375.88,-169.58 -110.1,-85.47 -198.34,-195.86 -257.45,-322.11 -62.11,-133.64 -89.57,-280.74 -79.85,-427.78 9.72,-147.07 56.32,-289.28 135.49,-413.58 79.17,-124.29 188.36,-226.65 317.5,-297.63 129.14,-70.98 274.08,-108.29 421.45,-108.51z"/>
  <path class="fil6" d="M3744.57 7226.82l-8.84 -21.53c-18.67,-46.18 -59.83,-73.22 -91.87,-60.06l-1448.48 589.3c-7.17,2.86 -9.57,13.63 -5.5,23.91l61.73 151.72c4.3,10.27 13.39,16.26 20.57,13.37l1448.48 -590.49c32.06,-13.13 42.81,-60.99 23.91,-106.22z"/>
  <path class="fil8" d="M2391.81 5557.76l174.19 576.37 -87.34 1174.76 256.96 32.31c0,0 294.29,-999.63 265.11,-1180.5 -29.19,-180.9 -149.31,-707.75 -149.31,-707.75l-459.61 104.81z"/>
  <path class="fil8" d="M2479.39 7300.51l-119.64 204.33 -74.64 191.38 111.73 -43.77c0,0 47.85,231.12 67.23,237.11 19.37,5.97 73.2,-12.68 67.71,-56.95 7.97,7.77 17.6,13.61 28.19,17.09 10.56,3.48 21.79,4.52 32.8,3 33.98,-6.94 42.14,-28.94 38.3,-71.77 0,0 39.48,32.04 63.15,12.21 7.25,-7.16 12.9,-15.76 16.57,-25.23 3.68,-9.49 5.27,-19.64 4.72,-29.8 0,0 51.46,4.29 58.63,-22.27 7.56,-43.63 8.52,-88.15 2.87,-132.06 -5.98,-29.19 -30.86,-147.88 -30.86,-147.88l-11.49 -95.68 -255.28 -39.72z"/>
  <path class="fil9" d="M2507.4 7699.36c9.32,20.79 15.37,42.91 17.92,65.57 5.91,22.05 8.42,44.89 7.42,67.71 -9.37,-20.79 -15.43,-42.91 -17.92,-65.57 -5.92,-22.05 -8.42,-44.89 -7.42,-67.71z"/>
  <path class="fil9" d="M2612.16 7672.79c8.78,16.15 14.24,33.86 16.02,52.15 5.32,17.66 7.2,36.19 5.51,54.56 -8.59,-16.29 -14.02,-34.07 -16.02,-52.38 -5.2,-17.63 -7.06,-36.03 -5.51,-54.32z"/>
  <path class="fil9" d="M2699.74 7648.15c5.19,14.52 7.96,29.8 8.15,45.23 4.06,23.92 10.52,44.26 7.42,45.44 -10.63,-12.21 -16.95,-27.61 -17.95,-43.78 -3.62,-15.54 -2.79,-31.8 2.39,-46.9z"/>
  <path class="fil9" d="M2388.95 7585.7c9.25,20.41 15.69,41.99 19.15,64.14 6.91,21.31 11.11,43.42 12.44,65.77 -11.56,-19.4 -19.29,-40.84 -22.74,-63.15 -7.06,-21.51 -10.07,-44.14 -8.85,-66.77z"/>
  <path class="fil10" d="M3014.87 6548.75c0,-19.62 80.37,-293.33 55.98,-435.22 -24.41,-141.86 -316.3,-1100.57 -355.55,-1169.01 -30.92,-46.16 -74.07,-82.76 -124.65,-105.74 -56.32,30.51 -105.94,72.07 -145.85,122.19 -39.91,50.09 -69.32,107.74 -86.47,169.45 -58.62,210.32 -58.62,474.21 -58.62,474.21l234.72 582.12 -27.99 330.65 508.42 31.35z"/>
  <path class="fil1" d="M2314.56 5585.51c2.4,0 -2.15,-43.07 0,-111.99 1.47,-40.06 5.38,-80.01 11.72,-119.62 15.21,-97.68 45.22,-192.48 89.01,-281.13 17.79,-36.19 37.77,-71.26 59.8,-105.03 37.81,-57.92 66.04,-90.2 64.37,-91.65 -7.79,6.48 -14.85,13.78 -21.05,21.79 -17.91,20.31 -34.52,41.72 -49.78,64.11 -23.28,33.46 -44.21,68.48 -62.68,104.79 -45.3,89.38 -75.77,185.55 -90.2,284.72 -5.74,40.42 -8.78,81.19 -9.09,122.01 -0.38,27.42 0.98,54.84 4.06,82.07 0.32,10.08 1.6,20.1 3.83,29.93z"/>
  <path class="fil1" d="M2329.61 5707.28c5.86,24.58 13.86,48.62 23.93,71.79 16.99,44.25 42.6,104.31 71.78,169.87l75.61 167.47c9.2,23.8 20.08,46.9 32.55,69.14 -5.87,-24.58 -13.86,-48.59 -23.94,-71.77 -16.98,-44.27 -42.58,-104.31 -71.77,-169.87l-75.61 -167.48c-9.2,-23.79 -20.08,-46.9 -32.54,-69.16z"/>
  <path class="fil1" d="M2520.77 6209.26c51.64,-27.56 105.41,-50.92 160.79,-69.86 56.65,-14.81 114.43,-24.96 172.75,-30.4 -17.12,-3.75 -34.74,-4.7 -52.18,-2.87 -42.1,2 -83.81,9.16 -124.17,21.29 -40.42,12.08 -79.16,29.21 -115.33,50.95 -15.5,7.98 -29.64,18.41 -41.87,30.87z"/>
  <path class="fil0" d="M992.88 7857.99c-2.15,2.64 186.38,167.5 421.33,368.7 234.95,201.21 427.08,361.76 429.23,358.88 2.15,-2.87 -186.38,-167.47 -421.33,-368.44 -234.95,-201 -427.08,-361.76 -429.23,-359.14z"/>
  <path class="fil0" d="M750.27 7857.99c-2.39,2.64 156.47,143.55 354.82,313.19 198.34,169.64 360.56,306.51 362.95,303.86 2.39,-2.62 -156.72,-143.56 -354.82,-313.2 -198.1,-169.61 -360.8,-306.47 -362.95,-303.85z"/>
  <path class="fil1" d="M393.03 8194.14c0,0 0,-5.03 1.44,-15.07 1.43,-10.06 1.43,-25.37 2.87,-44.75 0,-9.8 0,-20.82 1.92,-32.78 1.91,-11.95 3.82,-25.11 5.97,-39.46 2.15,-14.36 4.55,-29.45 7.18,-45.71 2.63,-16.27 8.14,-33.03 12.2,-51.21 22.08,-87.93 57.24,-172.06 104.32,-249.54 61.61,-102.95 142.43,-193.12 238.06,-265.58l40.43 -30.13c14.36,-9.32 29.19,-17.72 44.02,-26.8 14.83,-9.08 29.43,-19.14 45.7,-26.56l47.86 -23.92 23.93 -11.73 26.08 -9.32 52.64 -19.15c17.94,-5.98 36.6,-9.82 55.02,-14.83 18.63,-5.43 37.57,-9.75 56.71,-12.92 39.04,-7.25 78.53,-11.8 118.19,-13.63 20.1,0 40.43,-2.65 61.01,-2.39l61.73 3.34c10.53,0 21.06,0 31.34,1.9l31.11 4.79c20.82,3.6 42.11,5.98 62.93,10.28 42.31,9.46 83.95,21.69 124.66,36.62 41.76,15.07 82.45,32.97 121.78,53.59 19.86,10.76 38.76,23.92 58.38,34.69 9.57,6.23 19.62,11.47 28.71,18.17l27.52 20.82c76.94,54.86 144.21,122.12 199.06,199.06l21.53 28.73 18.91 30.86 18.66 30.87c6.61,10.14 12.45,20.77 17.46,31.81l31.59 65.8c8.61,23.92 16.99,46.17 25.36,69.39 64.28,191.24 64.28,398.27 0,589.54 -8.61,23.91 -16.99,46.18 -25.36,69.14 -8.38,22.96 -21.29,44.01 -31.82,66.02l-7.9 16.28 -9.57 15.54 -18.66 30.87 -18.9 30.86 -21.54 28.71c-28.01,37.77 -58.46,73.65 -91.16,107.43 -33.39,32.28 -68.79,62.4 -105.98,90.2l-27.52 20.57c-9.33,6.94 -19.37,11.98 -28.95,18.19 -19.62,11.47 -38.51,23.92 -58.13,34.69 -39.39,20.67 -80.16,38.58 -122.02,53.6 -40.7,14.92 -82.35,27.15 -124.66,36.6 -20.82,4.32 -42.11,6.7 -62.93,10.27l-31.1 4.79c-10.53,1.43 -20.82,1.2 -31.34,1.91l-61.73 3.36c-20.58,0 -40.92,-1.67 -61.02,-2.39 -39.66,-1.83 -79.16,-6.39 -118.19,-13.63 -19.16,-3.07 -38.1,-7.39 -56.7,-12.92 -18.43,-5.03 -37.33,-8.87 -55.03,-14.59l-52.64 -19.38 -26.08 -9.35 -23.93 -11.71 -47.85 -23.93c-16.27,-7.42 -30.63,-17.93 -45.7,-26.57 -15.08,-8.61 -29.67,-17.45 -44.03,-26.79l-40.43 -30.14c-95.69,-72.39 -176.52,-162.56 -238.06,-265.58 -47.42,-76.87 -83.07,-160.41 -105.75,-247.87 -4.06,-18.17 -10.29,-34.68 -12.2,-51.18 -1.91,-16.53 -5.03,-31.59 -7.18,-45.71 -2.15,-14.12 -4.79,-27.28 -5.97,-39.24 -1.2,-11.95 -1.44,-23.92 -1.92,-33 -1.43,-19.15 -2.39,-33.98 -2.87,-44.52 0,-10.04 -1.44,-15.31 -1.44,-15.31 0,0 0,5.27 0,15.31 0,10.06 0,25.37 1.68,44.75 0,9.88 0.48,20.89 1.44,33 0,11.97 3.34,25.13 5.26,39.48l6.7 45.95c3.12,17.4 7.11,34.67 11.97,51.67 21.1,88.79 55.8,173.76 102.87,251.94 61.65,104.24 142.89,195.58 239.26,268.92l40.68 30.64c14.36,9.33 29.42,18.17 44.26,27.28 14.84,9.08 29.67,19.38 45.94,27.03l49.05 23.92 23.93 11.73 26.32 9.8 53.11 19.39c17.94,6.22 36.85,10.06 55.74,15.07 18.73,5.74 37.84,10.13 57.19,13.16 39.49,7.53 79.46,12.26 119.63,14.12 20.57,0 40.91,2.88 61.73,2.64l62.68 -3.12c10.29,0 21.06,0 31.59,-1.91l31.59 -4.79c21.05,-3.58 42.34,-5.98 63.64,-10.27 42.8,-9.47 84.93,-21.77 126.09,-36.87 42.48,-15.02 83.82,-33.09 123.7,-54.07 19.86,-10.76 39,-23.92 58.85,-34.94 9.81,-6.22 20.1,-11.46 29.43,-18.4l27.03 -21.29c37.83,-27.94 73.72,-58.39 107.43,-91.18 33.48,-34.28 64.49,-70.9 92.83,-109.58l22.01 -28.94 18.9 -31.32 19.14 -31.36 9.57 -15.54 8.14 -16.76 33.02 -66.74 25.84 -70.12c65.25,-194.03 65.25,-404.09 0,-598.14l-25.84 -69.62c-10.77,-22.24 -21.54,-44.49 -32.06,-66.76 -5.19,-11.14 -11.1,-21.92 -17.71,-32.29l-19.14 -31.35 -19.14 -31.09 -21.77 -28.97c-28.48,-38.52 -59.48,-75.15 -92.83,-109.58 -33.71,-32.76 -69.6,-63.23 -107.43,-91.15l-28 -20.82c-9.4,-6.72 -19.14,-12.94 -29.19,-18.66 -19.86,-11.47 -39,-23.92 -58.85,-34.94 -39.93,-20.86 -81.27,-38.93 -123.7,-54.07 -41.16,-15.08 -83.28,-27.39 -126.09,-36.84 -21.29,-4.32 -42.59,-6.7 -63.65,-10.3l-31.58 -4.77c-10.53,-1.2 -21.06,-1.2 -31.59,-1.94l-62.68 -3.1c-20.58,0 -41.16,1.91 -61.49,2.62 -40.16,1.87 -80.14,6.59 -119.63,14.12 -19.3,3.29 -38.39,7.68 -57.19,13.16 -18.66,5.04 -37.56,9.11 -55.74,15.09l-53.11 19.36 -26.08 9.83 -23.93 11.97 -47.86 23.92c-15.84,8.13 -31.25,17.07 -46.17,26.79 -14.83,9.09 -29.91,17.96 -44.26,27.28l-40.67 30.62c-96.37,73.36 -177.62,164.67 -239.26,268.95 -47.08,78.16 -81.78,163.15 -102.88,251.91 -4.06,18.19 -10.05,35.17 -11.96,51.7 -1.92,16.49 -4.55,31.8 -6.7,45.94 -2.14,14.11 -4.3,27.51 -5.26,39.46 -0.96,11.97 0,23.93 -1.43,33.02 0,19.38 0,34.22 -1.68,44.76 -1.68,10.51 -1.68,15.3 -1.68,15.3z"/>
  <path class="fil1" d="M740.2 8693.48c-7.33,-11.16 -15.32,-21.86 -23.93,-32.07 -21.74,-28.66 -41.72,-58.63 -59.82,-89.72 -60.53,-102.23 -98.28,-216.35 -110.67,-334.54 -12.38,-118.18 0.88,-237.64 38.89,-350.22 11.47,-34.12 24.81,-67.59 39.96,-100.23 6.41,-11.62 11.92,-23.7 16.51,-36.14 0,0 -2.4,2.64 -5.98,8.39 -3.59,5.75 -8.85,14.11 -14.83,25.58 -17.06,32.04 -31.69,65.32 -43.79,99.54 -40.99,113.33 -55.83,234.45 -43.41,354.3 12.43,119.89 51.81,235.38 115.18,337.87 19.08,30.93 40.34,60.42 63.65,88.29 8.14,9.8 15.31,16.98 19.86,22.01 4.54,5.03 7.89,7.17 8.37,6.94z"/>
  <path class="fil1" d="M789.72 8779.36c-1.68,3.13 5.74,10.54 16.51,16.76 10.77,6.2 21.05,8.61 22.73,5.72 1.68,-2.86 -5.74,-10.52 -16.51,-16.73 -10.77,-6.23 -21.05,-8.61 -22.73,-5.75z"/>
  <path class="fil0" d="M2023.37 8596.83c2.41,-3.49 4.33,-7.27 5.75,-11.26 3.34,-7.42 8.61,-18.41 14.11,-33.26 15.93,-41.53 28.65,-84.26 38.05,-127.75 31.49,-144.4 27.8,-294.22 -10.76,-436.9 -38.56,-142.65 -110.86,-273.95 -210.8,-382.81 -29.87,-33.03 -62.36,-63.59 -97.14,-91.39 -11.96,-10.04 -22.25,-16.73 -28.95,-21.76 -6.7,-5.04 -10.28,-7.18 -10.76,-6.7 -0.48,0.48 12.91,11.73 36.6,32.31 33.32,28.94 64.65,60.13 93.79,93.3 97.04,109.17 167.35,239.4 205.39,380.41 38.04,141.03 42.75,288.95 13.77,432.12 -8.67,43.2 -20.19,85.81 -34.45,127.51 -9.34,29.66 -15.55,45.94 -14.6,46.18z"/>
  <path class="fil0" d="M1468.01 7424.21c36.12,11.21 74.25,14.4 111.73,9.33 -17.38,-7.73 -36.26,-11.47 -55.27,-10.99 -18.73,-3.55 -37.99,-2.98 -56.47,1.67z"/>
 </g>
</svg>
